<svg xmlns="http://www.w3.org/2000/svg" width="6.175" height="10.23" viewBox="0 0 6.175 10.23">
  <g transform="translate(-456.5 -726)">
    <path id="Path_39759" data-name="Path 39759" d="M.164,9.066a.559.559,0,0,0,.791,0L3.507,6.515l1.5-1.5h0a.559.559,0,0,0,0-.792L.956.164h0A.56.56,0,0,0,.164.955l3.66,3.66L.164,8.275a.559.559,0,0,0,0,.791Z" transform="translate(457 726.5)" fill="#e20055"/>
    <path id="Path_39759_-_Outline" data-name="Path 39759 - Outline" d="M.56,9.73A1.061,1.061,0,0,1-.5,8.67a1.052,1.052,0,0,1,.311-.749L3.117,4.615-.189,1.309A1.051,1.051,0,0,1-.5.56,1.06,1.06,0,0,1,.56-.5a1.052,1.052,0,0,1,.567.164h.036L1.31-.19,5.365,3.866a1.059,1.059,0,0,1,0,1.5L1.309,9.42A1.053,1.053,0,0,1,.56,9.73ZM.56.5A.06.06,0,0,0,.5.56.057.057,0,0,0,.517.6L4.531,4.615.518,8.629A.06.06,0,0,0,.5,8.67a.06.06,0,0,0,.1.042L4.662,4.653a.059.059,0,0,0,0-.08L.6.517A.057.057,0,0,0,.56.5Z" transform="translate(457 726.5)" fill="#e20055"/>
  </g>
</svg>
