<svg id="Group_14" data-name="Group 14" xmlns="http://www.w3.org/2000/svg" width="15.522" height="15.051" viewBox="0 0 15.522 15.051">
  <g id="Group_113" data-name="Group 113">
    <path id="Path_232" data-name="Path 232" d="M14.092.314H.922a.842.842,0,0,0-.941.941v13.17a.842.842,0,0,0,.941.941h13.17c.636,0,1.411-.347,1.411-.941V1.255C15.46.661,14.728.314,14.092.314Zm-9.407,12.7H2.333V5.958H4.685Zm-1.411-8A1.494,1.494,0,0,1,1.862,3.606,1.494,1.494,0,0,1,3.273,2.2,1.494,1.494,0,0,1,4.685,3.606,1.494,1.494,0,0,1,3.273,5.018Zm9.878,8H10.8V9.721c0-.848-.224-1.881-1.411-1.881s-.941.949-.941,1.881v3.293H6.1V5.958H7.977V6.9h0a2.862,2.862,0,0,1,2.352-1.411c2.289,0,2.822,1.813,2.822,3.763Z" transform="translate(0.019 -0.314)" fill="#fff"/>
  </g>
</svg>
