<svg xmlns="http://www.w3.org/2000/svg" width="19" height="19" viewBox="0 0 19 19">
  <g id="Group_13496" data-name="Group 13496" transform="translate(-102 -2312.673)">
    <g id="Group_13495" data-name="Group 13495">
      <g id="Group_13494" data-name="Group 13494">
        <path id="Path_43087" data-name="Path 43087" d="M9.5,0A9.5,9.5,0,1,1,0,9.5,9.5,9.5,0,0,1,9.5,0Z" transform="translate(102 2312.673)" fill="#fff"/>
        <path id="Path_43087_-_Outline" data-name="Path 43087 - Outline" d="M9.5,2A7.5,7.5,0,1,0,17,9.5,7.508,7.508,0,0,0,9.5,2m0-2A9.5,9.5,0,1,1,0,9.5,9.5,9.5,0,0,1,9.5,0Z" transform="translate(102 2312.673)" fill="#00d0d8"/>
        <path id="Path_4470" data-name="Path 4470" d="M-3037.381-10149.4l-3.122-3.594a1,1,0,0,1,.1-1.411,1,1,0,0,1,1.411.1l1.723,1.984,4.269-4.222a1,1,0,0,1,1.414.008,1,1,0,0,1-.008,1.414Z" transform="translate(3147.611 12476.008)" fill="#146979"/>
      </g>
    </g>
  </g>
</svg>
