<svg xmlns="http://www.w3.org/2000/svg" width="44" height="44" viewBox="0 0 44 44">
  <g id="Group_13496" data-name="Group 13496" transform="translate(-1328 -1159)">
    <path id="Path_43086" data-name="Path 43086" d="M44,0V44H0Z" transform="translate(1328 1159)" fill="#e20055"/>
    <path id="Path_4335" data-name="Path 4335" d="M-753.639-510.934h-2.138a1.25,1.25,0,0,1-1.25-1.25,1.25,1.25,0,0,1,1.25-1.25h2.138a4.184,4.184,0,0,0,4.179-4.179,4.184,4.184,0,0,0-4.179-4.179h-5.429a1.25,1.25,0,0,1-1.25-1.25,1.25,1.25,0,0,1,1.25-1.25h5.429a6.687,6.687,0,0,1,6.679,6.679A6.687,6.687,0,0,1-753.639-510.934Z" transform="translate(2112.617 1707.016)" fill="#f4f4f4"/>
    <path id="Path_4335-2" data-name="Path 4335" d="M-752.45-505.709a1.246,1.246,0,0,1-.884-.366l-3.86-3.86,3.86-3.859a1.25,1.25,0,0,1,1.768,0,1.25,1.25,0,0,1,0,1.768l-2.092,2.091,2.092,2.092a1.25,1.25,0,0,1,0,1.768A1.246,1.246,0,0,1-752.45-505.709Z" transform="translate(2109.449 1704.767)" fill="#f4f4f4"/>
  </g>
</svg>
