<svg xmlns="http://www.w3.org/2000/svg" width="15.077" height="12.229" viewBox="0 0 15.077 12.229">
  <path id="Path_32" data-name="Path 32" d="M42.415,14.226A8.766,8.766,0,0,0,51.1,5.289v-.47a7.609,7.609,0,0,0,1.828-1.411,7.258,7.258,0,0,1-1.828.47,2.814,2.814,0,0,0,1.371-1.411,6.459,6.459,0,0,1-1.828.47A2.956,2.956,0,0,0,48.354,2a3.415,3.415,0,0,0-3.2,3.293c0,.254-.082.3,0,.47a8.709,8.709,0,0,1-6.4-3.293c-.247.424,0,1.288,0,1.881A2.581,2.581,0,0,0,39.673,6.7,2.669,2.669,0,0,1,38.3,6.23h0a3.592,3.592,0,0,0,2.741,3.293,3.284,3.284,0,0,1-.914,0c-.165,0-.292.085-.457,0A2.682,2.682,0,0,0,42.415,11.4a5.8,5.8,0,0,1-3.655,1.411,3.3,3.3,0,0,1-.914,0,7.173,7.173,0,0,0,4.569,1.411" transform="translate(-37.846 -1.997)" fill="#fff" fill-rule="evenodd"/>
</svg>
