<svg xmlns="http://www.w3.org/2000/svg" width="44" height="44" viewBox="0 0 44 44">
  <g id="Group_13497" data-name="Group 13497" transform="translate(-1062 -1158)">
    <path id="Path_4337" data-name="Path 4337" d="M44,0V44H0Z" transform="translate(1062 1158)" fill="#e20055"/>
    <g id="Group_5086" data-name="Group 5086" transform="translate(1089.023 1185.856)">
      <path id="Path_4335" data-name="Path 4335" d="M-752.45-505.709a1.246,1.246,0,0,1-.884-.366l-3.86-3.86,3.86-3.859a1.25,1.25,0,0,1,1.768,0,1.25,1.25,0,0,1,0,1.768l-2.092,2.091,2.092,2.092a1.25,1.25,0,0,1,0,1.768A1.246,1.246,0,0,1-752.45-505.709Z" transform="translate(758.426 512.91)" fill="#f4f4f4"/>
      <path id="Path_4335-2" data-name="Path 4335" d="M-755.426-505.709a1.246,1.246,0,0,1-.884-.366,1.25,1.25,0,0,1,0-1.768l2.092-2.092-2.092-2.091a1.25,1.25,0,0,1,0-1.768,1.25,1.25,0,0,1,1.768,0l3.86,3.859-3.86,3.86A1.246,1.246,0,0,1-755.426-505.709Z" transform="translate(755.426 512.91)" fill="#f4f4f4"/>
    </g>
  </g>
</svg>
