<svg xmlns="http://www.w3.org/2000/svg" width="21.926" height="15.348" viewBox="0 0 21.926 15.348">
  <path id="Path_793" data-name="Path 793" d="M106.018,87.436a2.746,2.746,0,0,0-1.939-1.938c-1.71-.458-8.566-.458-8.566-.458s-6.856,0-8.566.458a2.746,2.746,0,0,0-1.939,1.938,30.631,30.631,0,0,0,0,10.555,2.746,2.746,0,0,0,1.939,1.938c1.71.458,8.566.458,8.566.458s6.856,0,8.566-.458a2.746,2.746,0,0,0,1.939-1.938,30.631,30.631,0,0,0,0-10.555ZM93.32,96V89.424l5.7,3.289Z" transform="translate(-84.55 -85.039)" fill="#fff"/>
</svg>
